# Blender 4.0.1
# www.blender.org
o Cube.001
v -11.364290 -0.459865 11.364290
v -11.364290 0.459865 11.364290
v -11.364290 -0.459865 -11.364290
v -11.364290 0.459865 -11.364290
v 11.364290 -0.459865 11.364290
v 11.364290 0.459865 11.364290
v 11.364290 -0.459865 -11.364290
v 11.364290 0.459865 -11.364290
vn -1.0000 -0.0000 -0.0000
vn -0.0000 -0.0000 -1.0000
vn 1.0000 -0.0000 -0.0000
vn -0.0000 -0.0000 1.0000
vn -0.0000 -1.0000 -0.0000
vn -0.0000 1.0000 -0.0000
vt 0.910039 0.915313
vt 0.402606 0.505776
vt 0.464643 0.537275
vt 0.000000 1.000000
vt 0.456250 0.444720
vt -0.000000 -0.000000
vt 0.499079 0.482460
vt 0.910039 0.056669
vt 0.000000 1.000000
vt 1.000000 -0.000000
vt 1.000000 1.000000
vt 0.000000 0.000000
s 0
f 2/1/1 3/2/1 1/3/1
f 4/4/2 7/5/2 3/2/2
f 8/6/3 5/7/3 7/5/3
f 6/8/4 1/3/4 5/7/4
f 7/5/5 1/3/5 3/2/5
f 4/9/6 6/10/6 8/11/6
f 2/1/1 4/4/1 3/2/1
f 4/4/2 8/6/2 7/5/2
f 8/6/3 6/8/3 5/7/3
f 6/8/4 2/1/4 1/3/4
f 7/5/5 5/7/5 1/3/5
f 4/9/6 2/12/6 6/10/6
o Cube.002
v -10.804733 -21.107283 10.777115
v -10.804733 -0.193067 10.777115
v -10.804733 -21.107283 8.777115
v -10.804733 -0.193067 8.777115
v -8.804733 -21.107283 10.777115
v -8.804733 -0.193067 10.777115
v -8.804733 -21.107283 8.777115
v -8.804733 -0.193067 8.777115
v -10.804733 -10.650175 10.777115
v -10.804733 -10.650174 8.777115
v -8.804733 -10.650174 8.777115
v -8.804733 -10.650174 10.777115
v -10.804733 -5.421621 10.777115
v -10.804733 -6.293633 8.777115
v -8.804733 -6.293633 8.777115
v -8.804733 -6.293633 10.777115
v -10.804733 -8.035897 8.777115
v -8.804733 -8.035897 8.777115
v -8.804733 -8.035897 10.777115
v -10.804733 -8.035898 10.777115
v -0.819271 -15.001446 0.791653
v -0.819271 -15.001446 2.791653
v -2.819271 -15.001446 0.791653
v -2.819271 -16.743711 0.791653
v -0.819271 -16.743711 0.791653
v -0.819271 -16.743711 2.791653
v 10.804733 -21.107283 10.777115
v 10.804733 -0.193067 10.777115
v 10.804733 -21.107283 8.777115
v 10.804733 -0.193067 8.777115
v 8.804733 -21.107283 10.777115
v 8.804733 -0.193067 10.777115
v 8.804733 -21.107283 8.777115
v 8.804733 -0.193067 8.777115
v 10.804733 -10.650175 10.777115
v 10.804733 -10.650174 8.777115
v 8.804733 -10.650174 8.777115
v 8.804733 -10.650174 10.777115
v 10.804733 -5.421621 10.777115
v 10.804733 -6.293633 8.777115
v 8.804733 -6.293633 8.777115
v 8.804733 -6.293633 10.777115
v 10.804733 -8.035897 8.777115
v 8.804733 -8.035897 8.777115
v 8.804733 -8.035897 10.777115
v 10.804733 -8.035898 10.777115
v 0.819271 -15.001446 0.791653
v 0.819271 -15.001446 2.791653
v 2.819271 -15.001446 0.791653
v 2.819271 -16.743711 0.791653
v 0.819271 -16.743711 0.791653
v 0.819271 -16.743711 2.791653
v -10.804733 -21.107283 -10.777115
v -10.804733 -0.193067 -10.777115
v -10.804733 -21.107283 -8.777115
v -10.804733 -0.193067 -8.777115
v -8.804733 -21.107283 -10.777115
v -8.804733 -0.193067 -10.777115
v -8.804733 -21.107283 -8.777115
v -8.804733 -0.193067 -8.777115
v -10.804733 -10.650175 -10.777115
v -10.804733 -10.650174 -8.777115
v -8.804733 -10.650174 -8.777115
v -8.804733 -10.650174 -10.777115
v -10.804733 -5.421621 -10.777115
v -10.804733 -6.293633 -8.777115
v -8.804733 -6.293633 -8.777115
v -8.804733 -6.293633 -10.777115
v -10.804733 -8.035897 -8.777115
v -8.804733 -8.035897 -8.777115
v -8.804733 -8.035897 -10.777115
v -10.804733 -8.035898 -10.777115
v -0.819271 -15.001446 -0.791653
v -0.819271 -15.001446 -2.791653
v -2.819271 -15.001446 -0.791653
v -2.819271 -16.743711 -0.791653
v -0.819271 -16.743711 -0.791653
v -0.819271 -16.743711 -2.791653
v 10.804733 -21.107283 -10.777115
v 10.804733 -0.193067 -10.777115
v 10.804733 -21.107283 -8.777115
v 10.804733 -0.193067 -8.777115
v 8.804733 -21.107283 -10.777115
v 8.804733 -0.193067 -10.777115
v 8.804733 -21.107283 -8.777115
v 8.804733 -0.193067 -8.777115
v 10.804733 -10.650175 -10.777115
v 10.804733 -10.650174 -8.777115
v 8.804733 -10.650174 -8.777115
v 8.804733 -10.650174 -10.777115
v 10.804733 -5.421621 -10.777115
v 10.804733 -6.293633 -8.777115
v 8.804733 -6.293633 -8.777115
v 8.804733 -6.293633 -10.777115
v 10.804733 -8.035897 -8.777115
v 8.804733 -8.035897 -8.777115
v 8.804733 -8.035897 -10.777115
v 10.804733 -8.035898 -10.777115
v 0.819271 -15.001446 -0.791653
v 0.819271 -15.001446 -2.791653
v 2.819271 -15.001446 -0.791653
v 2.819271 -16.743711 -0.791653
v 0.819271 -16.743711 -0.791653
v 0.819271 -16.743711 -2.791653
vn -1.0000 -0.0000 -0.0000
vn -0.0000 -0.0000 -1.0000
vn 1.0000 -0.0000 -0.0000
vn -0.0000 -0.0000 1.0000
vn -0.0000 -1.0000 -0.0000
vn -0.0000 1.0000 -0.0000
vn -0.7370 -0.6759 -0.0000
vn 0.7370 0.6759 -0.0000
vn 0.7071 -0.0000 0.7071
vn -0.7071 -0.0000 -0.7071
vn -0.0000 0.6759 -0.7370
vn -0.0000 -0.6759 0.7370
vn 0.7370 -0.6759 -0.0000
vn -0.7370 0.6759 -0.0000
vn -0.7071 -0.0000 0.7071
vn 0.7071 -0.0000 -0.7071
vn -0.0000 0.6759 0.7370
vn -0.0000 -0.6759 -0.7370
vt 0.562500 0.000000
vt 0.625000 0.250000
vt 0.562500 0.250000
vt 0.562500 0.500000
vt 0.625000 0.500000
vt 0.562500 0.750000
vt 0.625000 0.750000
vt 0.562500 1.000000
vt 0.375000 0.500000
vt 0.125000 0.750000
vt 0.125000 0.500000
vt 0.875000 0.500000
vt 0.500000 0.750000
vt 0.375000 1.000000
vt 0.375000 0.750000
vt 0.500000 0.500000
vt 0.500000 0.250000
vt 0.375000 0.250000
vt 0.500000 0.000000
vt 0.375000 0.000000
vt 0.531250 1.000000
vt 0.531250 0.750000
vt 0.531250 0.500000
vt 0.531250 0.000000
vt 0.531250 0.250000
vt 0.500000 1.000000
vt 0.625000 0.000000
vt 0.625000 1.000000
vt 0.875000 0.750000
s 0
f 21/13/7 12/14/7 22/15/7
f 12/14/8 23/16/8 22/15/8
f 16/17/9 24/18/9 23/16/9
f 14/19/10 21/20/10 24/18/10
f 15/21/11 9/22/11 11/23/11
f 12/24/12 14/19/12 16/17/12
f 20/25/10 9/26/10 13/27/10
f 19/28/9 13/27/9 15/21/9
f 18/29/8 15/21/8 11/30/8
f 17/31/7 11/30/7 9/32/7
f 24/18/10 28/33/10 27/34/10
f 26/35/13 34/34/13 27/34/13
f 23/16/14 30/18/14 29/16/14
f 28/36/7 22/15/7 25/37/7
f 28/36/7 18/29/7 17/31/7
f 25/37/8 19/28/8 18/29/8
f 26/35/9 20/25/9 19/28/9
f 20/25/10 28/33/10 17/38/10
f 29/16/9 34/34/9 33/35/9
f 31/15/8 33/35/8 32/37/8
f 27/34/15 30/18/15 24/18/15
f 25/37/16 31/15/16 32/37/16
f 23/16/17 31/15/17 22/15/17
f 26/35/18 32/37/18 33/35/18
f 47/13/9 38/14/9 36/39/9
f 49/16/8 38/14/8 48/15/8
f 50/18/7 42/17/7 49/16/7
f 47/20/10 40/19/10 50/18/10
f 35/22/11 41/21/11 37/23/11
f 40/19/12 38/24/12 42/17/12
f 35/26/10 46/25/10 39/27/10
f 39/27/7 45/28/7 41/21/7
f 41/21/8 44/29/8 37/30/8
f 37/30/9 43/31/9 35/32/9
f 54/33/10 50/18/10 53/34/10
f 60/34/19 52/35/19 53/34/19
f 49/16/20 56/18/20 50/18/20
f 54/36/9 48/15/9 47/13/9
f 44/29/9 54/36/9 43/31/9
f 45/28/8 51/37/8 44/29/8
f 46/25/7 52/35/7 45/28/7
f 46/25/10 54/33/10 53/34/10
f 60/34/7 55/16/7 59/35/7
f 59/35/8 57/15/8 58/37/8
f 56/18/21 53/34/21 50/18/21
f 51/37/22 57/15/22 48/15/22
f 57/15/17 49/16/17 48/15/17
f 52/35/18 58/37/18 51/37/18
f 73/13/7 64/14/7 62/39/7
f 75/16/10 64/14/10 74/15/10
f 76/18/9 68/17/9 75/16/9
f 73/20/8 66/19/8 76/18/8
f 61/22/11 67/21/11 63/23/11
f 66/19/12 64/24/12 68/17/12
f 61/26/8 72/25/8 65/27/8
f 65/27/9 71/28/9 67/21/9
f 67/21/10 70/29/10 63/30/10
f 63/30/7 69/31/7 61/32/7
f 80/33/8 76/18/8 79/34/8
f 86/34/13 78/35/13 79/34/13
f 75/16/14 82/18/14 76/18/14
f 80/36/7 74/15/7 73/13/7
f 70/29/7 80/36/7 69/31/7
f 71/28/10 77/37/10 70/29/10
f 72/25/9 78/35/9 71/28/9
f 72/25/8 80/33/8 79/34/8
f 86/34/9 81/16/9 85/35/9
f 85/35/10 83/15/10 84/37/10
f 82/18/22 79/34/22 76/18/22
f 77/37/21 83/15/21 74/15/21
f 83/15/23 75/16/23 74/15/23
f 78/35/24 84/37/24 77/37/24
f 99/13/9 90/14/9 100/15/9
f 90/14/10 101/16/10 100/15/10
f 94/17/7 102/18/7 101/16/7
f 92/19/8 99/20/8 102/18/8
f 93/21/11 87/22/11 89/23/11
f 90/24/12 92/19/12 94/17/12
f 98/25/8 87/26/8 91/27/8
f 97/28/7 91/27/7 93/21/7
f 96/29/10 93/21/10 89/30/10
f 95/31/9 89/30/9 87/32/9
f 102/18/8 106/33/8 105/34/8
f 104/35/19 112/34/19 105/34/19
f 101/16/20 108/18/20 107/16/20
f 106/36/9 100/15/9 103/37/9
f 106/36/9 96/29/9 95/31/9
f 103/37/10 97/28/10 96/29/10
f 104/35/7 98/25/7 97/28/7
f 98/25/8 106/33/8 95/38/8
f 107/16/7 112/34/7 111/35/7
f 109/15/10 111/35/10 110/37/10
f 105/34/16 108/18/16 102/18/16
f 103/37/15 109/15/15 110/37/15
f 101/16/23 109/15/23 100/15/23
f 104/35/24 110/37/24 111/35/24
f 21/13/7 10/39/7 12/14/7
f 12/14/8 16/17/8 23/16/8
f 16/17/9 14/19/9 24/18/9
f 14/19/10 10/40/10 21/20/10
f 15/21/11 13/27/11 9/22/11
f 12/24/12 10/41/12 14/19/12
f 20/25/10 17/38/10 9/26/10
f 19/28/9 20/25/9 13/27/9
f 18/29/8 19/28/8 15/21/8
f 17/31/7 18/29/7 11/30/7
f 24/18/10 21/20/10 28/33/10
f 26/35/13 33/35/13 34/34/13
f 23/16/14 24/18/14 30/18/14
f 28/36/7 21/13/7 22/15/7
f 28/36/7 25/37/7 18/29/7
f 25/37/8 26/35/8 19/28/8
f 26/35/9 27/34/9 20/25/9
f 20/25/10 27/34/10 28/33/10
f 29/16/9 30/18/9 34/34/9
f 31/15/8 29/16/8 33/35/8
f 27/34/15 34/34/15 30/18/15
f 25/37/16 22/15/16 31/15/16
f 23/16/17 29/16/17 31/15/17
f 26/35/18 25/37/18 32/37/18
f 47/13/9 48/15/9 38/14/9
f 49/16/8 42/17/8 38/14/8
f 50/18/7 40/19/7 42/17/7
f 47/20/10 36/40/10 40/19/10
f 35/22/11 39/27/11 41/21/11
f 40/19/12 36/41/12 38/24/12
f 35/26/10 43/38/10 46/25/10
f 39/27/7 46/25/7 45/28/7
f 41/21/8 45/28/8 44/29/8
f 37/30/9 44/29/9 43/31/9
f 54/33/10 47/20/10 50/18/10
f 60/34/19 59/35/19 52/35/19
f 49/16/20 55/16/20 56/18/20
f 54/36/9 51/37/9 48/15/9
f 44/29/9 51/37/9 54/36/9
f 45/28/8 52/35/8 51/37/8
f 46/25/7 53/34/7 52/35/7
f 46/25/10 43/38/10 54/33/10
f 60/34/7 56/18/7 55/16/7
f 59/35/8 55/16/8 57/15/8
f 56/18/21 60/34/21 53/34/21
f 51/37/22 58/37/22 57/15/22
f 57/15/17 55/16/17 49/16/17
f 52/35/18 59/35/18 58/37/18
f 73/13/7 74/15/7 64/14/7
f 75/16/10 68/17/10 64/14/10
f 76/18/9 66/19/9 68/17/9
f 73/20/8 62/40/8 66/19/8
f 61/22/11 65/27/11 67/21/11
f 66/19/12 62/41/12 64/24/12
f 61/26/8 69/38/8 72/25/8
f 65/27/9 72/25/9 71/28/9
f 67/21/10 71/28/10 70/29/10
f 63/30/7 70/29/7 69/31/7
f 80/33/8 73/20/8 76/18/8
f 86/34/13 85/35/13 78/35/13
f 75/16/14 81/16/14 82/18/14
f 80/36/7 77/37/7 74/15/7
f 70/29/7 77/37/7 80/36/7
f 71/28/10 78/35/10 77/37/10
f 72/25/9 79/34/9 78/35/9
f 72/25/8 69/38/8 80/33/8
f 86/34/9 82/18/9 81/16/9
f 85/35/10 81/16/10 83/15/10
f 82/18/22 86/34/22 79/34/22
f 77/37/21 84/37/21 83/15/21
f 83/15/23 81/16/23 75/16/23
f 78/35/24 85/35/24 84/37/24
f 99/13/9 88/39/9 90/14/9
f 90/14/10 94/17/10 101/16/10
f 94/17/7 92/19/7 102/18/7
f 92/19/8 88/40/8 99/20/8
f 93/21/11 91/27/11 87/22/11
f 90/24/12 88/41/12 92/19/12
f 98/25/8 95/38/8 87/26/8
f 97/28/7 98/25/7 91/27/7
f 96/29/10 97/28/10 93/21/10
f 95/31/9 96/29/9 89/30/9
f 102/18/8 99/20/8 106/33/8
f 104/35/19 111/35/19 112/34/19
f 101/16/20 102/18/20 108/18/20
f 106/36/9 99/13/9 100/15/9
f 106/36/9 103/37/9 96/29/9
f 103/37/10 104/35/10 97/28/10
f 104/35/7 105/34/7 98/25/7
f 98/25/8 105/34/8 106/33/8
f 107/16/7 108/18/7 112/34/7
f 109/15/10 107/16/10 111/35/10
f 105/34/16 112/34/16 108/18/16
f 103/37/15 100/15/15 109/15/15
f 101/16/23 107/16/23 109/15/23
f 104/35/24 103/37/24 110/37/24
