# Blender 4.0.1
# www.blender.org
mtllib m1_geo.mtl
o Cube
v -10.738944 -0.222642 -6.430539
v -10.738944 6.946815 -6.430539
v -10.738944 -0.222642 -11.055017
v -10.738944 6.946815 -11.055017
v 10.738944 -0.222642 -6.430539
v 10.738944 6.946815 -6.430539
v 10.738944 -0.222642 -11.055017
v 10.738944 6.946815 -11.055017
v 0.000000 -0.222642 -11.055017
v 0.000000 6.946815 -11.055017
v 0.000000 -0.222642 -6.430539
v 0.000000 6.946815 -6.430539
v 5.369472 6.946815 -11.055017
v 5.369472 -0.222642 -6.430539
v 5.369472 -0.222642 -11.055017
v 5.369472 6.946815 -6.430539
v 10.738944 0.398375 7.989674
v 10.738944 -0.222642 7.989674
v 5.369472 -0.222642 7.989674
v 5.369472 0.398375 7.989674
v 5.369472 3.672595 0.779568
v 10.738944 3.672595 0.779568
v 10.738944 -0.222642 0.779568
v 5.369472 -0.222642 0.779568
v 10.738944 5.309705 -2.825486
v 5.369472 -0.222642 -2.825486
v 5.369472 5.309705 -2.825486
v 10.738944 -0.222642 -2.825486
v -10.738944 3.362086 -6.430539
v -10.738944 3.362086 -11.055017
v 10.738944 3.362086 -11.055017
v 10.738944 3.362086 -6.430539
v 0.000000 3.362086 -6.430539
v 0.000000 3.362086 -11.055017
v 5.369472 3.362086 -6.430539
v 5.369472 3.362086 -11.055017
v 10.738944 0.087866 7.989674
v 5.369472 0.087866 7.989674
v 10.738944 1.724976 0.779568
v 5.369472 1.724976 0.779568
v 5.369472 2.543531 -2.825486
v 10.738944 2.543531 -2.825486
v 1.896833 3.362086 -7.378955
v 1.896833 -0.222642 -7.378955
v 7.266305 -0.222642 -7.378955
v 7.266305 3.362086 -7.378955
v 7.266305 -0.222642 -3.773902
v 7.266305 -0.222642 -0.168849
v 7.266305 1.724976 -0.168849
v 7.266305 2.543531 -3.773902
v -10.738944 -0.222642 -0.661307
v 0.000000 -0.222642 -3.583781
v 0.000000 3.362086 -3.583781
v -10.738944 3.362086 -0.661307
v -5.369472 -0.222642 -11.055017
v -5.369472 6.946815 -6.430539
v -5.369472 6.946815 -11.055017
v -5.369472 -0.222642 -6.430539
v -5.369472 3.362086 -11.055017
v -5.369472 3.362086 -6.430539
v -5.369472 -0.222642 -0.661307
v -5.369472 3.362086 -0.661307
v -5.369472 5.042452 -4.365083
v -10.738944 5.042452 -4.365083
v -5.369472 3.358344 -0.661307
v -10.738944 3.358344 -0.661307
v -5.369472 5.031813 -6.436021
v -10.738944 5.031813 -6.436021
v -5.369472 5.024038 -4.476442
v -10.738944 5.024038 -4.476442
v -6.408843 -0.078740 7.286463
v -6.408843 8.030745 7.286463
v -6.408843 -0.078740 5.286464
v -6.408843 8.030745 5.286464
v -4.408843 -0.078740 7.286463
v -4.408843 8.030745 7.286463
v -4.408843 -0.078740 5.286464
v -4.408843 8.030745 5.286464
v -3.040829 -0.078740 9.781324
v -3.040829 6.019497 9.781324
v -3.040829 -0.078740 7.781324
v -3.040829 6.019497 7.781324
v -1.040829 -0.078740 9.781324
v -1.040829 6.019497 9.781324
v -1.040829 -0.078740 7.781324
v -1.040829 6.019497 7.781324
v -2.648181 -0.301660 6.725904
v -2.648181 3.703217 6.725904
v -2.648181 -0.301660 4.725904
v -2.648181 3.703217 4.725904
v -0.648181 -0.301660 6.725904
v -0.648181 3.703217 6.725904
v -0.648181 -0.301660 4.725904
v -0.648181 3.703217 4.725904
v 0.081979 -0.399256 8.684891
v 0.081979 2.152396 8.684891
v 0.081979 -0.399256 6.684891
v 0.081979 2.152396 6.684891
v 2.081979 -0.399256 8.684891
v 2.081979 2.152396 8.684891
v 2.081979 -0.399256 6.684891
v 2.081979 2.152396 6.684891
v 2.117959 2.152396 6.684891
v 4.921175 0.082046 6.684891
v 4.921175 0.082046 8.684891
v 2.117959 2.152396 8.684891
vn -1.0000 -0.0000 -0.0000
vn -0.0000 -0.0000 -1.0000
vn 1.0000 -0.0000 -0.0000
vn -0.0000 -0.0000 1.0000
vn -0.0000 -1.0000 -0.0000
vn -0.0000 1.0000 -0.0000
vn -0.0000 0.9105 0.4135
vn -0.1100 -0.9693 -0.2201
vn 0.4472 -0.0000 0.8944
vn -0.4472 -0.0000 -0.8944
vn 0.4781 -0.0000 0.8783
vn -0.0000 0.9103 0.4139
vn -0.0000 -0.0033 -1.0000
vn -0.0000 1.0000 0.0040
vn -0.0000 0.9866 -0.1631
vn 0.5941 0.8044 -0.0000
vn 0.1671 -0.9859 -0.0000
vt 0.566832 0.590526
vt 0.647931 0.485905
vt 0.647931 0.590526
vt 0.162198 0.850189
vt 0.081099 0.971617
vt 0.081099 0.850189
vt 0.162198 0.916762
vt 0.243297 0.812140
vt 0.243297 0.916762
vt 0.404634 0.607107
vt 0.485733 0.485904
vt 0.485733 0.607107
vt 0.873552 0.485902
vt 0.768956 0.364427
vt 0.873542 0.364427
vt 0.442831 0.485905
vt 0.338668 0.364428
vt 0.442831 0.364428
vt 0.442831 0.242952
vt 0.338668 0.121476
vt 0.442831 0.121476
vt 0.873533 0.242951
vt 0.768936 0.121476
vt 0.873523 0.121476
vt 0.404634 0.849513
vt 0.485733 0.728310
vt 0.485733 0.849513
vt 0.162198 0.607333
vt 0.081099 0.728761
vt 0.081099 0.607333
vt 0.169334 0.121476
vt 0.000000 0.000000
vt 0.169334 0.000000
vt 0.338668 -0.000000
vt 0.442831 -0.000000
vt 0.768946 0.242951
vt 0.162198 0.728761
vt 0.702555 0.842249
vt 0.709580 0.721046
vt 0.709580 0.842249
vt 0.605903 0.485902
vt 0.442831 0.364427
vt 0.605893 0.364427
vt 0.404634 0.701491
vt 0.330792 0.847107
vt 0.364515 0.683272
vt 0.280334 0.649022
vt 0.310347 0.485905
vt 0.317371 0.485905
vt 0.261816 0.730581
vt 0.236272 0.649022
vt 0.850506 0.507403
vt 0.771958 0.485904
vt 0.893434 0.485980
vt 0.687435 0.485902
vt 0.687425 0.364427
vt 0.254001 0.121476
vt 0.254001 0.000000
vt 0.768966 0.485902
vt 0.771943 0.692791
vt 0.729030 0.752629
vt 0.729030 0.671428
vt 0.199235 0.730581
vt 0.324396 0.812140
vt 0.324396 0.730581
vt 0.398238 0.519437
vt 0.324396 0.575479
vt 0.324396 0.485904
vt 0.381377 0.601355
vt 0.324396 0.665054
vt 0.324396 0.649022
vt 0.324396 0.485905
vt 0.324396 0.844203
vt 0.716605 0.721046
vt 0.716605 0.842249
vt 0.000000 0.850190
vt 0.000000 0.728762
vt 0.000000 0.607334
vt 0.850506 0.589416
vt 0.893434 0.650006
vt 0.850506 0.671428
vt 0.485733 0.916207
vt 0.550137 0.997306
vt 0.485733 0.997306
vt 0.324396 0.916762
vt 0.000000 0.971618
vt 0.729030 0.485905
vt 0.729030 0.590526
vt 0.873552 0.247017
vt 0.917614 0.165458
vt 0.936133 0.247017
vt 0.873552 0.328575
vt 0.954651 0.328575
vt 0.873552 0.165458
vt 0.954651 0.044255
vt 0.954651 0.165458
vt 0.954651 0.000000
vt 0.873552 0.044255
vt 0.873552 0.000000
vt 0.893434 0.567993
vt 0.771943 0.773992
vt 0.729030 0.833830
vt 0.850506 0.671428
vt 0.893419 0.692791
vt 0.954651 0.109570
vt 0.998151 0.153628
vt 0.954651 0.153632
vt 0.485733 0.607107
vt 0.566832 0.485904
vt 0.566832 0.607107
vt 0.704564 0.242951
vt 0.638460 0.121476
vt 0.729030 0.842474
vt 0.728946 0.721046
vt 0.729030 0.721046
vt 0.647931 0.721046
vt 0.850506 0.855193
vt 0.729030 0.919313
vt 0.729030 0.855193
vt 0.638450 -0.000000
vt 0.768926 0.000000
vt 0.485733 0.732742
vt 0.566832 0.732742
vt 0.081099 0.485905
vt 0.000000 0.485905
vt 0.162198 0.485904
vt 0.873513 0.000000
vt 0.338668 0.242952
vt 0.404634 0.728310
vt 0.445872 0.896635
vt 0.324396 0.983626
vt 0.324396 0.896635
vt 0.447958 0.849513
vt 0.485733 0.970945
vt 0.447958 0.970941
vt 0.648016 0.721046
vt 0.609916 0.637254
vt 0.918884 0.459244
vt 0.956845 0.375427
vt 0.918799 0.459244
vt 0.445872 0.850012
vt 0.324396 0.894166
vt 0.324396 0.850012
vt 0.445872 0.894166
vt 0.918799 0.328724
vt 0.956427 0.372908
vt 0.610332 0.634735
vt 0.610156 0.590402
vt 0.612079 0.721046
vt 0.657326 0.904511
vt 0.612079 0.904511
vt 0.657326 0.721046
vt 0.702555 0.904511
vt 0.657326 0.904511
vt 0.566832 0.721046
vt 0.566832 0.904511
vt 0.485733 0.732742
vt 0.530878 0.916207
vt 0.485733 0.916207
vt 0.297916 0.962008
vt 0.252680 0.916762
vt 0.297912 0.916762
vt 0.893419 0.947355
vt 0.938468 0.992602
vt 0.893419 0.992602
vt 0.873552 0.328575
vt 0.918799 0.466539
vt 0.873552 0.466539
vt 0.893434 0.485905
vt 0.938663 0.623868
vt 0.893434 0.623868
vt 0.893419 0.671428
vt 0.938666 0.809392
vt 0.893419 0.809392
vt 0.893420 0.809392
vt 0.938565 0.947355
vt 0.893420 0.947355
vt 0.938665 0.669118
vt 0.893434 0.623868
vt 0.938665 0.623872
vt 0.938565 0.920761
vt 0.983613 0.966008
vt 0.938565 0.966008
vt 0.657326 0.995115
vt 0.612079 0.995115
vt 0.702555 0.995116
vt 0.612079 0.995115
vt 0.566832 0.995115
vt 0.999797 0.256062
vt 0.954651 0.256062
vt 0.252680 0.962008
vt 0.207445 0.916762
vt 0.252677 0.916762
vt 0.938663 0.623868
vt 0.983711 0.669115
vt 0.938663 0.669115
vt 0.162198 0.916762
vt 0.207445 0.974489
vt 0.162198 0.974489
vt 0.996390 0.485905
vt 0.938663 0.531134
vt 0.938663 0.485905
vt 0.996394 0.716574
vt 0.938666 0.717386
vt 0.938666 0.716574
vt 0.996394 0.671428
vt 0.999883 0.045367
vt 0.954769 0.000000
vt 1.000000 0.000121
vt 0.940407 0.809392
vt 0.983610 0.856405
vt 0.938597 0.854602
vt 0.938565 0.855416
vt 0.985420 0.920761
vt 0.940408 0.918959
vt 0.954769 0.109445
vt 0.954652 0.045247
vt 0.996390 0.531947
vt 0.949552 0.595341
vt 0.566832 0.485905
vt 0.162198 0.971617
vt 0.162198 0.812140
vt 0.404634 0.485904
vt 0.338668 0.485905
vt 0.000000 0.121476
vt 0.702555 0.721046
vt 0.442841 0.485902
vt 0.337188 0.850012
vt 0.729030 0.507327
vt 0.550137 0.916207
vt 0.873552 0.165458
vt 0.771943 0.855193
vt 0.998151 0.109566
vt 0.485733 0.485904
vt 0.728946 0.842474
vt 0.729030 0.721046
vt 0.850506 0.985140
vt 0.445872 0.983626
vt 0.485733 0.849517
vt 0.956574 0.328575
vt 0.657326 0.721046
vt 0.702555 0.721047
vt 0.612079 0.721046
vt 0.530878 0.732742
vt 0.252684 0.962008
vt 0.938468 0.947355
vt 0.918799 0.328575
vt 0.938663 0.485905
vt 0.938666 0.671428
vt 0.938565 0.809392
vt 0.893434 0.669115
vt 0.983613 0.920761
vt 0.702555 0.904511
vt 0.612079 0.904511
vt 0.999797 0.165458
vt 0.207449 0.962008
vt 0.983711 0.623868
vt 0.207445 0.916762
vt 0.996390 0.531134
vt 0.985505 0.780662
vt 0.985420 0.811194
vt 0.983577 0.857218
vt 1.000000 0.109566
s 0
usemtl Material.001
f 2/1/1 30/2/1 29/3/1
f 13/4/2 31/5/2 36/6/2
f 8/7/3 32/8/3 31/9/3
f 56/10/4 29/11/4 60/12/4
f 7/13/5 14/14/5 15/15/5
f 4/16/6 56/17/6 57/18/6
f 10/19/6 16/20/6 13/21/6
f 9/22/5 58/23/5 55/24/5
f 16/25/4 33/26/4 35/27/4
f 57/28/2 34/29/2 59/30/2
f 21/31/7 17/32/7 22/33/7
f 13/21/6 6/34/6 8/35/6
f 15/15/5 11/36/5 9/22/5
f 10/37/2 36/6/2 34/29/2
f 17/38/4 38/39/4 37/40/4
f 23/41/5 19/42/5 24/43/5
f 24/44/1 38/45/1 40/46/1
f 39/47/3 17/48/3 37/49/3
f 42/50/3 22/51/3 39/47/3
f 35/52/5 43/53/5 46/54/5
f 28/55/5 24/43/5 26/56/5
f 27/57/7 22/33/7 25/58/7
f 16/20/7 25/58/7 6/34/7
f 5/59/5 26/56/5 14/14/5
f 14/60/6 47/61/6 45/62/6
f 32/8/3 25/63/3 42/50/3
f 5/64/3 42/50/3 28/65/3
f 35/66/1 27/67/1 16/68/1
f 41/69/1 21/70/1 27/67/1
f 28/65/3 39/47/3 23/71/3
f 23/71/3 37/49/3 18/72/3
f 40/46/1 20/73/1 21/70/1
f 37/40/4 19/74/4 18/75/4
f 34/29/2 15/76/2 9/77/2
f 59/30/2 9/77/2 55/78/2
f 41/79/8 49/80/8 40/81/8
f 33/82/3 52/83/3 11/84/3
f 31/9/3 5/64/3 7/85/3
f 36/6/2 7/86/2 15/76/2
f 29/3/1 3/87/1 1/88/1
f 47/89/1 49/90/1 50/91/1
f 45/92/1 50/91/1 46/93/1
f 46/94/4 44/95/4 45/96/4
f 11/97/9 43/98/9 33/99/9
f 35/52/8 50/100/8 41/79/8
f 26/101/6 48/102/6 47/61/6
f 14/60/6 44/103/6 11/104/6
f 40/105/10 48/106/10 24/107/10
f 62/108/4 51/109/4 61/110/4
f 58/23/5 52/111/5 61/112/5
f 62/113/2 66/114/2 54/115/2
f 1/88/1 54/116/1 29/3/1
f 60/117/6 53/118/6 33/119/6
f 58/23/5 51/120/5 1/121/5
f 53/122/11 61/110/11 52/123/11
f 30/124/2 55/78/2 3/125/2
f 4/126/2 59/30/2 30/124/2
f 55/24/5 1/121/5 3/127/5
f 57/18/6 12/128/6 10/19/6
f 12/129/4 60/12/4 33/26/4
f 64/130/12 65/131/12 63/132/12
f 29/133/13 67/134/13 60/135/13
f 29/3/1 66/136/1 64/137/1
f 62/138/1 63/139/1 65/140/1
f 68/141/14 69/142/14 67/143/14
f 63/132/15 70/144/15 64/130/15
f 60/145/3 69/146/3 63/139/3
f 29/3/1 70/147/1 68/148/1
f 72/149/1 73/150/1 71/151/1
f 74/152/2 77/153/2 73/154/2
f 78/155/3 75/151/3 77/156/3
f 76/157/4 71/158/4 75/159/4
f 77/160/5 71/161/5 73/162/5
f 74/163/6 76/164/6 78/165/6
f 80/166/1 81/167/1 79/168/1
f 82/169/2 85/170/2 81/171/2
f 86/172/3 83/173/3 85/174/3
f 84/175/4 79/176/4 83/177/4
f 85/178/5 79/179/5 81/180/5
f 82/181/6 84/182/6 86/183/6
f 88/151/1 89/184/1 87/185/1
f 90/150/2 93/186/2 89/184/2
f 94/156/3 91/187/3 93/188/3
f 92/96/4 87/189/4 91/190/4
f 93/191/5 87/192/5 89/193/5
f 90/194/6 92/195/6 94/196/6
f 96/197/1 97/198/1 95/199/1
f 98/200/2 101/201/2 97/202/2
f 99/203/4 106/204/4 100/205/4
f 100/205/4 95/206/4 99/203/4
f 101/207/5 95/208/5 97/209/5
f 98/210/6 100/211/6 102/212/6
f 103/213/16 105/214/16 104/215/16
f 101/207/17 105/216/17 99/217/17
f 100/211/6 103/213/6 102/212/6
f 101/201/2 103/218/2 104/219/2
f 2/1/1 4/220/1 30/2/1
f 13/4/2 8/221/2 31/5/2
f 8/7/3 6/222/3 32/8/3
f 56/10/4 2/223/4 29/11/4
f 7/13/5 5/59/5 14/14/5
f 4/16/6 2/224/6 56/17/6
f 10/19/6 12/128/6 16/20/6
f 9/22/5 11/36/5 58/23/5
f 16/25/4 12/129/4 33/26/4
f 57/28/2 10/37/2 34/29/2
f 21/31/7 20/225/7 17/32/7
f 13/21/6 16/20/6 6/34/6
f 15/15/5 14/14/5 11/36/5
f 10/37/2 13/4/2 36/6/2
f 17/38/4 20/226/4 38/39/4
f 23/41/5 18/227/5 19/42/5
f 24/44/1 19/228/1 38/45/1
f 39/47/3 22/51/3 17/48/3
f 42/50/3 25/63/3 22/51/3
f 35/52/5 33/229/5 43/53/5
f 28/55/5 23/41/5 24/43/5
f 27/57/7 21/31/7 22/33/7
f 16/20/7 27/57/7 25/58/7
f 5/59/5 28/55/5 26/56/5
f 14/60/6 26/101/6 47/61/6
f 32/8/3 6/222/3 25/63/3
f 5/64/3 32/8/3 42/50/3
f 35/66/1 41/69/1 27/67/1
f 41/69/1 40/46/1 21/70/1
f 28/65/3 42/50/3 39/47/3
f 23/71/3 39/47/3 37/49/3
f 40/46/1 38/45/1 20/73/1
f 37/40/4 38/39/4 19/74/4
f 34/29/2 36/6/2 15/76/2
f 59/30/2 34/29/2 9/77/2
f 41/79/8 50/100/8 49/80/8
f 33/82/3 53/230/3 52/83/3
f 31/9/3 32/8/3 5/64/3
f 36/6/2 31/5/2 7/86/2
f 29/3/1 30/2/1 3/87/1
f 47/89/1 48/231/1 49/90/1
f 45/92/1 47/89/1 50/91/1
f 46/94/4 43/98/4 44/95/4
f 11/97/9 44/95/9 43/98/9
f 35/52/8 46/54/8 50/100/8
f 26/101/6 24/232/6 48/102/6
f 14/60/6 45/62/6 44/103/6
f 40/105/10 49/233/10 48/106/10
f 62/108/4 54/234/4 51/109/4
f 58/23/5 11/36/5 52/111/5
f 62/113/2 65/235/2 66/114/2
f 1/88/1 51/236/1 54/116/1
f 60/117/6 62/237/6 53/118/6
f 58/23/5 61/112/5 51/120/5
f 53/122/11 62/108/11 61/110/11
f 30/124/2 59/30/2 55/78/2
f 4/126/2 57/28/2 59/30/2
f 55/24/5 58/23/5 1/121/5
f 57/18/6 56/17/6 12/128/6
f 12/129/4 56/10/4 60/12/4
f 64/130/12 66/238/12 65/131/12
f 29/133/13 68/239/13 67/134/13
f 29/3/3 54/116/3 66/136/3
f 62/138/3 60/145/3 63/139/3
f 68/141/14 70/144/14 69/142/14
f 63/132/15 69/142/15 70/144/15
f 60/145/3 67/240/3 69/146/3
f 29/3/1 64/137/1 70/147/1
f 72/149/1 74/241/1 73/150/1
f 74/152/2 78/242/2 77/153/2
f 78/155/3 76/243/3 75/151/3
f 76/157/4 72/244/4 71/158/4
f 77/160/5 75/245/5 71/161/5
f 74/163/6 72/246/6 76/164/6
f 80/166/1 82/247/1 81/167/1
f 82/169/2 86/248/2 85/170/2
f 86/172/3 84/249/3 83/173/3
f 84/175/4 80/250/4 79/176/4
f 85/178/5 83/251/5 79/179/5
f 82/181/6 80/252/6 84/182/6
f 88/151/1 90/150/1 89/184/1
f 90/150/2 94/253/2 93/186/2
f 94/156/3 92/254/3 91/187/3
f 92/96/4 88/255/4 87/189/4
f 93/191/5 91/256/5 87/192/5
f 90/194/6 88/257/6 92/195/6
f 96/197/1 98/258/1 97/198/1
f 98/200/2 102/259/2 101/201/2
f 99/203/4 105/260/4 106/204/4
f 100/205/4 96/249/4 95/206/4
f 101/207/5 99/217/5 95/208/5
f 98/210/6 96/261/6 100/211/6
f 103/213/16 106/262/16 105/214/16
f 101/207/17 104/263/17 105/216/17
f 100/211/6 106/262/6 103/213/6
f 101/201/2 102/259/2 103/218/2
