# Blender 4.0.1
# www.blender.org
o Cube
v -10.738944 -0.222642 -6.430539
v -10.738944 6.946815 -6.430539
v -10.738944 -0.222642 -11.055017
v -10.738944 6.946815 -11.055017
v 10.738944 -0.222642 -6.430539
v 10.738944 6.946815 -6.430539
v 10.738944 -0.222642 -11.055017
v 10.738944 6.946815 -11.055017
v 0.000000 -0.222642 -11.055017
v 0.000000 6.946815 -11.055017
v 0.000000 -0.222642 -6.430539
v 0.000000 6.946815 -6.430539
v 5.369472 6.946815 -11.055017
v 5.369472 -0.222642 -6.430539
v 5.369472 -0.222642 -11.055017
v 5.369472 6.946815 -6.430539
v 10.738944 0.398375 7.989674
v 10.738944 -0.222642 7.989674
v 5.369472 -0.222642 7.989674
v 5.369472 0.398375 7.989674
v 5.369472 3.672595 0.779568
v 10.738944 3.672595 0.779568
v 10.738944 -0.222642 0.779568
v 5.369472 -0.222642 0.779568
v 10.738944 5.309705 -2.825486
v 5.369472 -0.222642 -2.825486
v 5.369472 5.309705 -2.825486
v 10.738944 -0.222642 -2.825486
v -10.738944 3.362086 -6.430539
v -10.738944 3.362086 -11.055017
v 10.738944 3.362086 -11.055017
v 10.738944 3.362086 -6.430539
v 0.000000 3.362086 -6.430539
v 0.000000 3.362086 -11.055017
v 5.369472 3.362086 -6.430539
v 5.369472 3.362086 -11.055017
v 10.738944 0.087866 7.989674
v 5.369472 0.087866 7.989674
v 10.738944 1.724976 0.779568
v 5.369472 1.724976 0.779568
v 5.369472 2.543531 -2.825486
v 10.738944 2.543531 -2.825486
v 1.896833 3.362086 -7.378955
v 1.896833 -0.222642 -7.378955
v 7.266305 -0.222642 -7.378955
v 7.266305 3.362086 -7.378955
v 7.266305 -0.222642 -3.773902
v 7.266305 -0.222642 -0.168849
v 7.266305 1.724976 -0.168849
v 7.266305 2.543531 -3.773902
v -10.738944 -0.222642 -4.363677
v 0.000000 -0.222642 -4.239631
v 0.000000 3.362086 -4.239631
v -10.738944 3.362086 -4.363677
v -5.369472 -0.222642 -11.055017
v -5.369472 6.946815 -6.430539
v -5.369472 6.946815 -11.055017
v -5.369472 -0.222642 -6.430539
v -5.369472 3.362086 -11.055017
v -5.369472 3.362086 -6.430539
v -5.369472 -0.222642 -4.363677
v -5.369472 3.362086 -4.363677
v -5.369472 5.042452 -4.365083
v -10.738944 5.042452 -4.365083
v -5.369472 3.358344 -4.363677
v -10.738944 3.358344 -4.363677
v -5.369472 5.031813 -6.436021
v -10.738944 5.031813 -6.436021
v -5.369472 5.024038 -4.476442
v -10.738944 5.024038 -4.476442
v -6.408843 -0.078740 7.286463
v -6.408843 8.030745 7.286463
v -6.408843 -0.078740 5.286464
v -6.408843 8.030745 5.286464
v -4.408843 -0.078740 7.286463
v -4.408843 8.030745 7.286463
v -4.408843 -0.078740 5.286464
v -4.408843 8.030745 5.286464
v -3.040829 -0.078740 9.781324
v -3.040829 6.019497 9.781324
v -3.040829 -0.078740 7.781324
v -3.040829 6.019497 7.781324
v -1.040829 -0.078740 9.781324
v -1.040829 6.019497 9.781324
v -1.040829 -0.078740 7.781324
v -1.040829 6.019497 7.781324
v -2.648181 -0.301660 6.725904
v -2.648181 3.703217 6.725904
v -2.648181 -0.301660 4.725904
v -2.648181 3.703217 4.725904
v -0.648181 -0.301660 6.725904
v -0.648181 3.703217 6.725904
v -0.648181 -0.301660 4.725904
v -0.648181 3.703217 4.725904
v 0.081979 -0.399256 8.684891
v 0.081979 2.152396 8.684891
v 0.081979 -0.399256 6.684891
v 0.081979 2.152396 6.684891
v 2.081979 -0.399256 8.684891
v 2.081979 2.152396 8.684891
v 2.081979 -0.399256 6.684891
v 2.081979 2.152396 6.684891
v 2.117959 2.152396 6.684891
v 4.921175 0.082046 6.684891
v 4.921175 0.082046 8.684891
v 2.117959 2.152396 8.684891
vn -1.0000 -0.0000 -0.0000
vn -0.0000 -0.0000 -1.0000
vn 1.0000 -0.0000 -0.0000
vn -0.0000 -0.0000 1.0000
vn -0.0000 -1.0000 -0.0000
vn -0.0000 1.0000 -0.0000
vn -0.0000 0.9105 0.4135
vn -0.1100 -0.9693 -0.2201
vn 0.4472 -0.0000 0.8944
vn -0.4472 -0.0000 -0.8944
vn -0.0231 -0.0000 0.9997
vn -0.0000 0.0008 1.0000
vn -0.0000 -0.0033 -1.0000
vn -0.0000 1.0000 0.0040
vn -0.0000 0.9866 -0.1631
vn 0.5941 0.8044 -0.0000
vn 0.1671 -0.9859 -0.0000
vt 0.896235 0.481923
vt 1.000000 0.562358
vt 0.896235 0.562358
vt 0.160870 0.843226
vt 0.080435 0.963660
vt 0.080436 0.843226
vt 0.160873 0.909254
vt 0.241307 0.805489
vt 0.241307 0.909254
vt 0.321743 0.602358
vt 0.402177 0.481925
vt 0.402177 0.602358
vt 0.864244 0.481923
vt 0.760504 0.361442
vt 0.864234 0.361442
vt 0.437050 0.481925
vt 0.333571 0.361444
vt 0.437050 0.361444
vt 0.437050 0.240963
vt 0.333571 0.120481
vt 0.437050 0.120481
vt 0.864224 0.240961
vt 0.760485 0.120481
vt 0.864215 0.120481
vt 0.321743 0.843223
vt 0.402178 0.722790
vt 0.402178 0.843223
vt 0.160872 0.602359
vt 0.080436 0.722793
vt 0.080437 0.602359
vt 0.166785 0.120481
vt -0.000000 0.000000
vt 0.166785 0.000000
vt 0.333571 0.000000
vt 0.437050 0.000000
vt 0.760494 0.240961
vt 0.160871 0.722793
vt 0.402178 0.602358
vt 0.409145 0.481925
vt 0.409145 0.602358
vt 0.598787 0.481923
vt 0.437050 0.361442
vt 0.598777 0.361442
vt 0.516631 0.695744
vt 0.443394 0.840168
vt 0.476840 0.677674
vt 0.278041 0.643707
vt 0.307808 0.481925
vt 0.314775 0.481925
vt 0.259674 0.724598
vt 0.234340 0.643707
vt 0.717547 0.503245
vt 0.639643 0.481923
vt 0.760123 0.481998
vt 0.679650 0.481923
vt 0.679641 0.361442
vt 0.250178 0.120481
vt 0.250178 0.000000
vt 0.760514 0.481923
vt 0.639628 0.687150
vt 0.597066 0.746596
vt 0.597066 0.665928
vt 0.197606 0.724598
vt 0.321742 0.805489
vt 0.321742 0.724598
vt 0.510287 0.515181
vt 0.437050 0.570764
vt 0.437050 0.481923
vt 0.493564 0.596428
vt 0.437050 0.659605
vt 0.321742 0.643707
vt 0.321742 0.481925
vt 0.437050 0.837287
vt 0.416112 0.481925
vt 0.416113 0.602358
vt 0.000001 0.843226
vt 0.000001 0.722793
vt 0.000002 0.602359
vt 0.717547 0.584586
vt 0.760123 0.644681
vt 0.717547 0.665928
vt 0.909103 0.394148
vt 0.958263 0.474583
vt 0.909103 0.474583
vt 0.321742 0.909254
vt 0.000000 0.963660
vt 1.000000 0.642793
vt 0.896235 0.642793
vt 0.516631 0.803600
vt 0.560332 0.722709
vt 0.578699 0.803600
vt 0.516631 0.884491
vt 0.597066 0.884491
vt 0.930294 0.642793
vt 0.849859 0.763225
vt 0.849859 0.642793
vt 0.849858 0.806375
vt 0.930294 0.763225
vt 0.930293 0.806375
vt 0.760123 0.563339
vt 0.639628 0.767818
vt 0.597066 0.827264
vt 0.717547 0.665928
vt 0.760109 0.687150
vt 0.930294 0.732550
vt 0.973438 0.776247
vt 0.930294 0.776251
vt 0.516631 0.602356
vt 0.597066 0.481923
vt 0.597066 0.602356
vt 0.714124 0.120481
vt 0.416197 0.602359
vt 0.416113 0.481925
vt 0.416197 0.481925
vt 0.849858 0.562358
vt 0.943741 0.806375
vt 0.897492 0.926857
vt 0.894717 0.806375
vt 0.714114 0.000000
vt 0.760475 0.000000
vt 0.516631 0.722709
vt 0.597066 0.722709
vt 0.080438 0.481925
vt 0.000003 0.481925
vt 0.160873 0.481925
vt 0.864205 -0.000000
vt 0.333571 0.240963
vt 0.321743 0.722790
vt 0.909121 0.000001
vt 0.946909 0.120433
vt 0.909121 0.120433
vt 0.909121 0.120433
vt 0.946586 0.240871
vt 0.909120 0.240867
vt 0.849858 0.562442
vt 0.849890 0.524653
vt 0.901948 0.410501
vt 0.864244 0.410532
vt 0.902032 0.410501
vt 0.955425 0.394148
vt 0.911564 0.273667
vt 0.955425 0.273667
vt 0.909103 0.273667
vt 0.911564 0.394148
vt 0.909103 0.394148
vt 0.901948 0.456877
vt 0.864657 0.413031
vt 0.852389 0.525067
vt 0.896358 0.524892
vt 0.760123 0.481923
vt 0.805000 0.663885
vt 0.760123 0.663885
vt 0.805000 0.481923
vt 0.849858 0.663886
vt 0.805000 0.663885
vt 0.760123 0.663885
vt 0.805000 0.845848
vt 0.760123 0.845848
vt 0.805000 0.663886
vt 0.849858 0.845848
vt 0.805000 0.845848
vt 0.250599 0.954130
vt 0.205734 0.909254
vt 0.250595 0.909254
vt 0.930294 0.687669
vt 0.975047 0.732546
vt 0.930294 0.732546
vt 0.864244 0.000000
vt 0.909120 0.136834
vt 0.864244 0.136834
vt 0.864244 0.273667
vt 0.909103 0.410501
vt 0.864244 0.410500
vt 0.909120 0.273667
vt 0.864244 0.273667
vt 0.894717 0.943209
vt 0.849858 0.943209
vt 0.205734 0.954134
vt 0.160873 0.909254
vt 0.205734 0.909258
vt 0.939469 0.971733
vt 0.894717 0.926857
vt 0.939469 0.926857
vt 0.597066 0.848486
vt 0.641943 0.938348
vt 0.597066 0.938348
vt 0.686819 0.848486
vt 0.731678 0.938349
vt 0.686819 0.938348
vt 0.641943 0.848486
vt 0.686819 0.938348
vt 0.641943 0.938348
vt 0.731678 0.848486
vt 0.776536 0.938348
vt 0.731678 0.938348
vt 0.295464 0.954130
vt 0.250599 0.909254
vt 0.295460 0.909254
vt 0.930294 0.642793
vt 0.975047 0.687669
vt 0.930294 0.687669
vt 0.516631 0.884491
vt 0.561507 0.941745
vt 0.516631 0.941745
vt 0.378997 0.843223
vt 0.321742 0.888082
vt 0.321743 0.843223
vt 0.436252 0.888081
vt 0.378997 0.888888
vt 0.378997 0.888081
vt 0.436252 0.843223
vt 0.849742 0.890844
vt 0.804997 0.845848
vt 0.849858 0.845968
vt 0.438499 0.843049
vt 0.481806 0.889322
vt 0.437075 0.887902
vt 0.437050 0.888709
vt 0.483229 0.953106
vt 0.438499 0.951686
vt 0.804997 0.954397
vt 0.804881 0.890724
vt 0.378997 0.888889
vt 0.332542 0.951763
vt 1.000000 0.481923
vt 0.160870 0.963660
vt 0.160873 0.805489
vt 0.321742 0.481925
vt 0.333571 0.481925
vt -0.000000 0.120481
vt 0.402178 0.481925
vt 0.437060 0.481923
vt 0.449738 0.843049
vt 0.597066 0.503170
vt 0.958263 0.394148
vt 0.516631 0.722709
vt 0.639628 0.848486
vt 0.973438 0.732546
vt 0.516631 0.481923
vt 0.711351 0.240962
vt 0.416113 0.602359
vt 0.849858 0.642793
vt 0.943741 0.926857
vt 0.946909 0.000000
vt 0.946587 0.120437
vt 0.864483 0.457000
vt 0.805000 0.481923
vt 0.849858 0.481923
vt 0.805000 0.663885
vt 0.849858 0.663886
vt 0.205737 0.954130
vt 0.909120 0.000000
vt 0.909103 0.273667
vt 0.894717 0.806375
vt 0.160873 0.954130
vt 0.894717 0.971733
vt 0.641943 0.848486
vt 0.731678 0.848486
vt 0.686819 0.848486
vt 0.776536 0.848486
vt 0.250602 0.954130
vt 0.975047 0.642793
vt 0.561507 0.884491
vt 0.378997 0.888082
vt 0.425452 0.951762
vt 0.378997 0.843223
vt 0.483229 0.844468
vt 0.481780 0.890129
vt 0.849858 0.954517
s 0
f 2/1/1 30/2/1 29/3/1
f 13/4/2 31/5/2 36/6/2
f 8/7/3 32/8/3 31/9/3
f 56/10/4 29/11/4 60/12/4
f 7/13/5 14/14/5 15/15/5
f 4/16/6 56/17/6 57/18/6
f 10/19/6 16/20/6 13/21/6
f 9/22/5 58/23/5 55/24/5
f 16/25/4 33/26/4 35/27/4
f 57/28/2 34/29/2 59/30/2
f 21/31/7 17/32/7 22/33/7
f 13/21/6 6/34/6 8/35/6
f 15/15/5 11/36/5 9/22/5
f 10/37/2 36/6/2 34/29/2
f 17/38/4 38/39/4 37/40/4
f 23/41/5 19/42/5 24/43/5
f 24/44/1 38/45/1 40/46/1
f 39/47/3 17/48/3 37/49/3
f 42/50/3 22/51/3 39/47/3
f 35/52/5 43/53/5 46/54/5
f 28/55/5 24/43/5 26/56/5
f 27/57/7 22/33/7 25/58/7
f 16/20/7 25/58/7 6/34/7
f 5/59/5 26/56/5 14/14/5
f 14/60/6 47/61/6 45/62/6
f 32/8/3 25/63/3 42/50/3
f 5/64/3 42/50/3 28/65/3
f 35/66/1 27/67/1 16/68/1
f 41/69/1 21/70/1 27/67/1
f 28/65/3 39/47/3 23/71/3
f 23/71/3 37/49/3 18/72/3
f 40/46/1 20/73/1 21/70/1
f 37/40/4 19/74/4 18/75/4
f 34/29/2 15/76/2 9/77/2
f 59/30/2 9/77/2 55/78/2
f 41/79/8 49/80/8 40/81/8
f 33/82/3 52/83/3 11/84/3
f 31/9/3 5/64/3 7/85/3
f 36/6/2 7/86/2 15/76/2
f 29/3/1 3/87/1 1/88/1
f 47/89/1 49/90/1 50/91/1
f 45/92/1 50/91/1 46/93/1
f 46/94/4 44/95/4 45/96/4
f 11/97/9 43/98/9 33/99/9
f 35/52/8 50/100/8 41/79/8
f 26/101/6 48/102/6 47/61/6
f 14/60/6 44/103/6 11/104/6
f 40/105/10 48/106/10 24/107/10
f 62/108/4 51/109/4 61/110/4
f 11/36/5 61/111/5 58/23/5
f 62/112/2 66/113/2 54/114/2
f 1/88/1 54/115/1 29/3/1
f 33/116/6 62/117/6 53/118/6
f 58/23/5 51/119/5 1/120/5
f 53/121/11 61/110/11 52/122/11
f 30/123/2 55/78/2 3/124/2
f 4/125/2 59/30/2 30/123/2
f 55/24/5 1/120/5 3/126/5
f 57/18/6 12/127/6 10/19/6
f 12/128/4 60/12/4 33/26/4
f 64/129/12 65/130/12 63/131/12
f 29/132/13 67/133/13 60/134/13
f 29/3/1 66/135/1 64/136/1
f 62/137/1 63/138/1 65/139/1
f 68/140/14 69/141/14 67/142/14
f 63/143/15 70/144/15 64/145/15
f 60/146/3 69/147/3 63/138/3
f 29/3/1 70/148/1 68/149/1
f 72/150/1 73/151/1 71/152/1
f 74/153/2 77/154/2 73/155/2
f 78/156/3 75/157/3 77/158/3
f 76/159/4 71/160/4 75/161/4
f 77/162/5 71/163/5 73/164/5
f 74/165/6 76/166/6 78/167/6
f 80/168/1 81/169/1 79/170/1
f 82/171/2 85/172/2 81/173/2
f 86/170/3 83/174/3 85/175/3
f 84/97/4 79/176/4 83/177/4
f 85/178/5 79/179/5 81/180/5
f 82/181/6 84/182/6 86/183/6
f 88/184/1 89/185/1 87/186/1
f 90/187/2 93/188/2 89/189/2
f 94/190/3 91/191/3 93/192/3
f 92/193/4 87/194/4 91/195/4
f 93/196/5 87/197/5 89/198/5
f 90/199/6 92/200/6 94/201/6
f 96/202/1 97/203/1 95/204/1
f 98/205/2 101/206/2 97/207/2
f 99/208/4 106/209/4 100/210/4
f 100/210/4 95/211/4 99/208/4
f 101/212/5 95/213/5 97/214/5
f 98/215/6 100/216/6 102/217/6
f 103/218/16 105/219/16 104/220/16
f 101/212/17 105/221/17 99/222/17
f 100/216/6 103/218/6 102/217/6
f 101/206/2 103/223/2 104/224/2
f 2/1/1 4/225/1 30/2/1
f 13/4/2 8/226/2 31/5/2
f 8/7/3 6/227/3 32/8/3
f 56/10/4 2/228/4 29/11/4
f 7/13/5 5/59/5 14/14/5
f 4/16/6 2/229/6 56/17/6
f 10/19/6 12/127/6 16/20/6
f 9/22/5 11/36/5 58/23/5
f 16/25/4 12/128/4 33/26/4
f 57/28/2 10/37/2 34/29/2
f 21/31/7 20/230/7 17/32/7
f 13/21/6 16/20/6 6/34/6
f 15/15/5 14/14/5 11/36/5
f 10/37/2 13/4/2 36/6/2
f 17/38/4 20/231/4 38/39/4
f 23/41/5 18/232/5 19/42/5
f 24/44/1 19/233/1 38/45/1
f 39/47/3 22/51/3 17/48/3
f 42/50/3 25/63/3 22/51/3
f 35/52/5 33/234/5 43/53/5
f 28/55/5 23/41/5 24/43/5
f 27/57/7 21/31/7 22/33/7
f 16/20/7 27/57/7 25/58/7
f 5/59/5 28/55/5 26/56/5
f 14/60/6 26/101/6 47/61/6
f 32/8/3 6/227/3 25/63/3
f 5/64/3 32/8/3 42/50/3
f 35/66/1 41/69/1 27/67/1
f 41/69/1 40/46/1 21/70/1
f 28/65/3 42/50/3 39/47/3
f 23/71/3 39/47/3 37/49/3
f 40/46/1 38/45/1 20/73/1
f 37/40/4 38/39/4 19/74/4
f 34/29/2 36/6/2 15/76/2
f 59/30/2 34/29/2 9/77/2
f 41/79/8 50/100/8 49/80/8
f 33/82/3 53/235/3 52/83/3
f 31/9/3 32/8/3 5/64/3
f 36/6/2 31/5/2 7/86/2
f 29/3/1 30/2/1 3/87/1
f 47/89/1 48/236/1 49/90/1
f 45/92/1 47/89/1 50/91/1
f 46/94/4 43/98/4 44/95/4
f 11/97/9 44/95/9 43/98/9
f 35/52/8 46/54/8 50/100/8
f 26/101/6 24/237/6 48/102/6
f 14/60/6 45/62/6 44/103/6
f 40/105/10 49/238/10 48/106/10
f 62/108/4 54/239/4 51/109/4
f 11/36/5 52/240/5 61/111/5
f 62/112/2 65/241/2 66/113/2
f 1/88/1 51/242/1 54/115/1
f 33/116/6 60/243/6 62/117/6
f 58/23/5 61/111/5 51/119/5
f 53/121/11 62/108/11 61/110/11
f 30/123/2 59/30/2 55/78/2
f 4/125/2 57/28/2 59/30/2
f 55/24/5 58/23/5 1/120/5
f 57/18/6 56/17/6 12/127/6
f 12/128/4 56/10/4 60/12/4
f 64/129/12 66/244/12 65/130/12
f 29/132/13 68/245/13 67/133/13
f 29/3/3 54/115/3 66/135/3
f 62/137/3 60/146/3 63/138/3
f 68/140/14 70/144/14 69/141/14
f 63/143/15 69/141/15 70/144/15
f 60/146/3 67/246/3 69/147/3
f 29/3/1 64/136/1 70/148/1
f 72/150/1 74/247/1 73/151/1
f 74/153/2 78/248/2 77/154/2
f 78/156/3 76/249/3 75/157/3
f 76/159/4 72/250/4 71/160/4
f 77/162/5 75/251/5 71/163/5
f 74/165/6 72/200/6 76/166/6
f 80/168/1 82/252/1 81/169/1
f 82/171/2 86/253/2 85/172/2
f 86/170/3 84/169/3 83/174/3
f 84/97/4 80/254/4 79/176/4
f 85/178/5 83/255/5 79/179/5
f 82/181/6 80/256/6 84/182/6
f 88/184/1 90/257/1 89/185/1
f 90/187/2 94/258/2 93/188/2
f 94/190/3 92/259/3 91/191/3
f 92/193/4 88/260/4 87/194/4
f 93/196/5 91/261/5 87/197/5
f 90/199/6 88/262/6 92/200/6
f 96/202/1 98/263/1 97/203/1
f 98/205/2 102/264/2 101/206/2
f 99/208/4 105/265/4 106/209/4
f 100/210/4 96/266/4 95/211/4
f 101/212/5 99/222/5 95/213/5
f 98/215/6 96/267/6 100/216/6
f 103/218/16 106/268/16 105/219/16
f 101/212/17 104/269/17 105/221/17
f 100/216/6 106/268/6 103/218/6
f 101/206/2 102/264/2 103/223/2
