# Blender 4.0.1
# www.blender.org
o Cube
v 1.000000 1.000000 -1.000000
v 1.000000 -1.000000 -1.000000
v 1.000000 1.000000 1.000000
v 1.000000 -1.000000 1.000000
v -1.000000 1.000000 -1.000000
v -1.000000 -1.000000 -1.000000
v -1.000000 1.000000 1.000000
v -1.000000 -1.000000 1.000000
vn -0.0000 1.0000 -0.0000
vn -0.0000 -0.0000 1.0000
vn -1.0000 -0.0000 -0.0000
vn -0.0000 -1.0000 -0.0000
vn 1.0000 -0.0000 -0.0000
vn -0.0000 -0.0000 -1.0000
vt 0.807037 0.002223
vt 0.175595 0.997505
vt 0.175595 0.002223
vt 0.187029 0.996882
vt 0.817178 0.876474
vt 0.186784 0.876703
vt 1.000362 -0.003382
vt 0.821376 0.999033
vt 0.821376 -0.003382
vt 0.816656 -0.000543
vt 0.167062 1.002375
vt 0.167062 -0.000543
vt 0.246438 0.001560
vt 0.009057 1.000271
vt 0.009057 0.001560
vt 0.183469 0.002342
vt 0.816531 0.095002
vt 0.181591 0.093524
vt 0.807037 0.997505
vt 0.817422 0.996653
vt 1.000362 0.999033
vt 0.816656 1.002375
vt 0.246438 1.000271
vt 0.818409 0.003820
s 0
f 5/1/1 3/2/1 1/3/1
f 3/4/2 8/5/2 4/6/2
f 7/7/3 6/8/3 8/9/3
f 2/10/4 8/11/4 6/12/4
f 1/13/5 4/14/5 2/15/5
f 5/16/6 2/17/6 6/18/6
f 5/1/1 7/19/1 3/2/1
f 3/4/2 7/20/2 8/5/2
f 7/7/3 5/21/3 6/8/3
f 2/10/4 4/22/4 8/11/4
f 1/13/5 3/23/5 4/14/5
f 5/16/6 1/24/6 2/17/6
