# Blender 4.0.1
# www.blender.org
o Cube.003
v -2.248528 -2.431470 2.248528
v -0.425416 0.555905 0.425416
v -2.248528 -2.431470 -2.248528
v -0.425416 0.555905 -0.425416
v 2.248528 -2.431470 2.248528
v 0.425416 0.555905 0.425416
v 2.248528 -2.431470 -2.248528
v 0.425416 0.555905 -0.425416
v -0.707538 1.000000 0.707538
v -0.707538 1.000000 -0.707538
v 0.707538 1.000000 -0.707538
v 0.707538 1.000000 0.707538
v -3.177960 -2.431470 0.000000
v -1.000000 1.000000 0.000000
v 3.177960 -2.431470 0.000000
v 1.000000 1.000000 0.000000
v -0.425416 0.555905 0.000000
v 0.425416 0.555905 0.000000
v 0.000000 -2.431470 -3.177960
v 0.000000 1.000000 -1.000000
v 0.000000 -2.431470 3.177960
v 0.000000 1.000000 1.000000
v 0.000000 0.555905 -0.425416
v 0.000000 0.555905 0.425416
v 0.000000 0.555905 0.000000
v 0.000000 -2.431470 0.000000
vn -0.7971 0.5060 -0.3295
vn 0.3295 0.5060 -0.7971
vn 0.7971 0.5060 0.3295
vn -0.3295 0.5060 0.7971
vn -0.0000 -1.0000 -0.0000
vn -0.0000 1.0000 -0.0000
vn 0.6115 0.7912 -0.0000
vn -0.0000 0.7912 0.6115
vn -0.6115 0.7912 -0.0000
vn -0.0000 0.7912 -0.6115
vn -0.7112 0.6386 0.2940
vn 0.7112 0.6386 -0.2940
vn 0.7971 0.5060 -0.3295
vn -0.7971 0.5060 0.3295
vn -0.2940 0.6386 -0.7112
vn 0.2940 0.6386 0.7112
vn 0.3295 0.5060 0.7971
vn -0.3295 0.5060 -0.7971
vn 0.7112 0.6386 0.2940
vn -0.2940 0.6386 0.7112
vn -0.7112 0.6386 -0.2940
vn 0.2940 0.6386 -0.7112
vt 0.496548 0.333333
vt 0.633630 0.000000
vt 0.701975 0.333333
vt 0.496547 0.666667
vt 0.633630 0.333333
vt 0.701975 0.666667
vt -0.000000 0.829881
vt 0.137083 0.496548
vt 0.205427 0.829881
vt 0.205427 0.829881
vt 0.342510 0.496548
vt 0.410854 0.829881
vt 0.248274 0.248274
vt 0.000000 0.351326
vt 0.000000 0.145650
vt 0.410854 0.532510
vt 0.446817 0.496548
vt 0.446817 0.532510
vt 0.459616 0.620129
vt 0.410854 0.568472
vt 0.468075 0.586401
vt 0.459616 0.684770
vt 0.410854 0.633114
vt 0.468075 0.651042
vt 0.459616 0.749411
vt 0.410854 0.697755
vt 0.468075 0.715683
vt 0.459616 0.814052
vt 0.410854 0.762396
vt 0.468075 0.780324
vt 0.419313 0.878694
vt 0.468075 0.827037
vt 0.468075 0.891678
vt 0.008459 0.881537
vt 0.057221 0.829881
vt 0.057221 0.894522
vt 0.446817 0.568472
vt 0.351326 0.496548
vt 0.496547 0.350898
vt 0.770319 0.000000
vt 0.907402 0.333333
vt 0.770319 0.333333
vt 0.907402 0.666667
vt 0.701975 0.666667
vt 0.496547 0.145221
vt 0.350898 0.000000
vt 0.482779 0.532510
vt 0.482779 0.568472
vt 0.065680 0.881537
vt 0.114442 0.829881
vt 0.114442 0.894522
vt 0.122901 0.881538
vt 0.171663 0.829881
vt 0.171663 0.894522
vt 0.482779 0.496548
vt 0.145221 0.000000
vt 0.564892 0.666667
vt 0.701975 1.000000
vt 0.496548 1.000000
vt 0.770319 0.666667
vt 0.907402 1.000000
vt 0.568989 0.000000
vt 0.568989 0.333333
vt 0.072442 0.496548
vt 0.277869 0.496548
vt 0.145650 0.496548
vt 0.410854 0.496548
vt 0.410854 0.697755
vt 0.410854 0.762396
vt 0.410854 0.827037
vt 0.410854 0.844966
vt 0.000000 0.847809
vt 0.834960 0.000000
vt 0.834960 0.333333
vt 0.057221 0.847809
vt 0.114442 0.847809
vt 0.629533 0.666667
vt 0.834960 0.666667
s 0
f 13/1/1 10/2/1 3/3/1
f 19/4/2 11/5/2 7/6/2
f 15/7/3 12/8/3 5/9/3
f 21/10/4 9/11/4 1/12/4
f 26/13/5 5/14/5 21/15/5
f 17/16/6 24/17/6 25/18/6
f 4/19/7 14/20/7 17/21/7
f 8/22/8 20/23/8 23/24/8
f 6/25/9 16/26/9 18/27/9
f 2/28/10 22/29/10 24/30/10
f 8/31/11 16/32/11 11/33/11
f 2/34/12 14/35/12 9/36/12
f 4/20/6 25/18/6 23/37/6
f 7/38/5 26/13/5 19/39/5
f 11/40/13 15/41/13 7/3/13
f 9/42/14 13/43/14 1/44/14
f 3/45/5 26/13/5 13/46/5
f 23/37/6 18/47/6 8/48/6
f 6/49/15 22/50/15 12/51/15
f 4/52/16 20/53/16 10/54/16
f 25/18/6 6/55/6 18/47/6
f 26/13/5 1/56/5 13/46/5
f 12/57/17 21/58/17 5/59/17
f 10/60/18 19/61/18 3/58/18
f 13/1/1 14/62/1 10/2/1
f 19/4/2 20/63/2 11/5/2
f 15/7/3 16/64/3 12/8/3
f 21/10/4 22/65/4 9/11/4
f 26/13/5 15/66/5 5/14/5
f 17/16/6 2/67/6 24/17/6
f 4/19/19 10/23/19 14/20/19
f 8/22/20 11/68/20 20/23/20
f 6/25/21 12/69/21 16/26/21
f 2/28/22 9/70/22 22/29/22
f 8/31/9 18/71/9 16/32/9
f 2/34/7 17/72/7 14/35/7
f 4/20/6 17/16/6 25/18/6
f 7/38/5 15/66/5 26/13/5
f 11/40/13 16/73/13 15/41/13
f 9/42/14 14/74/14 13/43/14
f 3/45/5 19/39/5 26/13/5
f 23/37/6 25/18/6 18/47/6
f 6/49/10 24/75/10 22/50/10
f 4/52/8 23/76/8 20/53/8
f 25/18/6 24/17/6 6/55/6
f 26/13/5 21/15/5 1/56/5
f 12/57/17 22/77/17 21/58/17
f 10/60/18 20/78/18 19/61/18
